<?xml version="1.0" standalone="no"?>
<!DOCTYPE svg PUBLIC "-//W3C//DTD SVG 20010904//EN"
 "http://www.w3.org/TR/2001/REC-SVG-20010904/DTD/svg10.dtd">
<svg version="1.0" xmlns="http://www.w3.org/2000/svg"
 width="358.000000pt" height="358.000000pt" viewBox="0 0 358.000000 358.000000"
 preserveAspectRatio="xMidYMid meet">
<metadata>
Created by potrace 1.11, written by Peter Selinger 2001-2013
</metadata>
<g transform="translate(0.000000,358.000000) scale(0.100000,-0.100000)"
fill="#000000" stroke="none">
<path d="M1020 1790 l0 -1031 503 4 c541 5 542 5 715 63 147 49 286 142 373
248 98 120 174 312 199 506 12 96 12 324 0 420 -25 194 -101 386 -199 506 -87
106 -226 199 -373 248 -173 58 -174 58 -715 63 l-503 4 0 -1031z m845 781
c146 -11 225 -30 330 -81 148 -71 254 -208 299 -386 25 -98 39 -260 33 -379
-19 -348 -125 -541 -356 -647 -124 -57 -204 -68 -548 -75 l-313 -6 0 792 0
791 218 0 c119 0 271 -5 337 -9z"/>
</g>
</svg>
